<?xml version="1.0" encoding="UTF-8"?>
<svg width="1174px" height="286px" viewBox="0 0 1174 286" version="1.1" xmlns="http://www.w3.org/2000/svg" xmlns:xlink="http://www.w3.org/1999/xlink">
    <!-- Generator: Sketch 61.2 (89653) - https://sketch.com -->
    <title>pinkpaper-banner</title>
    <desc>Created with Sketch.</desc>
    <g id="pinkpaper-banner" stroke="none" stroke-width="1" fill="none" fill-rule="evenodd">
        <rect fill="#FFFFFF" x="0" y="0" width="1174" height="286"></rect>
        <rect id="Rectangle" fill="#FFF3FA" x="0" y="0" width="1174" height="286"></rect>
        <g id="DeFiChain-Pink-Paper" transform="translate(299.000000, 121.000000)" fill-rule="nonzero">
            <path d="M19.5947593,51.9987406 C38.0603291,51.9987406 48.6215722,43.1876574 48.6215722,27.3677582 C48.6215722,11.5478589 37.4625229,2.87027708 19.5947593,2.87027708 C10.694089,2.87027708 6.97440585,3.1372796 0,3.1372796 L0,3.27078086 C1.92626447,7.80982368 2.65691651,10.3463476 2.65691651,16.6209068 L2.65691651,38.5151134 C2.65691651,44.7896725 1.92626447,47.3261965 0,51.8652393 L0,51.9987406 L19.5947593,51.9987406 Z M19.794028,50.3303887 C19.4619135,50.3303887 16.738574,50.1964736 14.5466179,50.0629723 L14.5466179,4.87279597 C16.4728824,4.67254408 18.8641073,4.53904282 19.3954906,4.53904282 C31.4844607,4.40554156 35.7355271,12.2821159 35.7355271,28.302267 C35.7355271,42.3866499 32.4143815,50.3967254 19.794028,50.3303887 Z M68.3491773,53 C75.9213894,53 80.9695308,48.7279597 82.7629494,42.4534005 L82.4308349,42.2531486 C81.2352224,43.5881612 78.4454601,45.4571788 73.8622791,45.4571788 C68.0170628,45.4571788 63.3674589,42.3866499 63.0353443,32.5743073 L82.8293723,32.6410579 C82.9622182,25.8324937 77.9140768,18.4231738 68.614869,18.4231738 C59.3820841,18.4231738 52.2084095,25.8324937 52.2084095,36.3123426 C52.2084095,45.6574307 58.3193175,53 68.3491773,53 Z M63.0353443,31.2392947 C63.0353443,25.1649874 64.76234,19.6246851 68.2163315,19.6246851 C70.8068251,19.6246851 72.4673979,22.2947103 72.4673979,28.5692695 L72.4673979,31.1057935 L63.0353443,31.2392947 Z M104.483242,51.9987406 L104.483242,51.8652393 C102.556977,47.1259446 101.826325,44.3224181 101.826325,37.9143577 L101.826325,27.5012594 L106.210238,27.5012594 C109.797075,27.5012594 113.118221,32.0403023 115.708714,34.4433249 L116.439366,34.4433249 L116.439366,19.290932 L115.708714,19.290932 C113.051798,21.8274559 109.730652,25.965995 106.210238,25.965995 L101.826325,25.965995 L101.826325,4.33879093 L110.992687,5.00629723 C114.380256,5.20654912 120.557587,12.615869 124.144424,16.220403 L124.875076,16.0201511 L122.417428,3.1372796 L87.2797075,3.1372796 L87.2797075,3.27078086 C89.205972,8.01007557 89.936624,10.6801008 89.936624,17.2216625 L89.936624,37.9143577 C89.936624,44.3891688 89.205972,47.1259446 87.2797075,51.8652393 L87.2797075,51.9987406 L104.483242,51.9987406 Z M134.107861,14.0843829 C137.296161,14.0843829 139.953077,11.4811083 139.953077,8.27707809 C139.953077,5.13979849 137.296161,2.53652393 134.107861,2.53652393 C130.919561,2.53652393 128.395491,5.13979849 128.395491,8.27707809 C128.395491,11.4811083 130.919561,14.0843829 134.107861,14.0843829 Z M142.012188,51.9987406 L142.012188,51.8652393 C140.949421,48.5944584 140.418038,45.7241814 140.418038,40.2506297 L140.418038,18.0894207 L126.402803,21.9609572 L126.402803,22.2279597 C128.794028,25.0314861 129.790372,27.9017632 129.790372,32.7745592 L129.790372,40.2506297 C129.790372,45.790932 129.05972,48.5944584 128.129799,51.8652393 L128.129799,51.9987406 L142.012188,51.9987406 Z M173.563071,53 C183.127971,53 189.50457,49.1952141 191.231566,47.9937028 L192.560024,34.8438287 L191.895795,34.6435768 C186.117002,44.8564232 181.666667,51.4647355 173.629494,51.4647355 C164.263863,51.4647355 159.149299,42.720403 159.149299,28.1687657 C159.149299,13.6838791 162.868982,3.67128463 173.76234,3.67128463 C180.404631,3.67128463 184.456429,7.34256927 191.630104,17.0881612 L192.294333,16.8879093 L190.965874,4.60579345 C186.847654,3.47103275 181.600244,2.13602015 174.094455,2.13602015 C158.02011,2.13602015 146.329677,13.6838791 146.329677,28.1687657 C146.329677,42.6536524 158.086533,53 173.563071,53 Z M212.154784,51.9987406 L212.154784,51.8652393 C211.092017,48.5944584 210.560634,45.790932 210.560634,40.2506297 L210.560634,26.7002519 C211.889092,24.9647355 214.014625,23.429471 216.472273,23.429471 C219.59415,23.429471 220.989031,25.5654912 220.989031,28.3690176 L220.989031,40.3173804 C220.989031,45.7241814 220.524071,48.5944584 219.394881,51.8652393 L219.394881,51.9987406 L233.27727,51.9987406 L233.27727,51.8652393 C232.14808,48.5944584 231.68312,45.8576826 231.68312,40.2506297 L231.68312,27.7015113 C231.68312,22.0277078 227.564899,18.4231738 221.719683,18.4231738 C215.808044,18.4231738 212.287629,22.0277078 210.560634,24.8312343 L210.560634,0 L196.545399,3.87153652 L196.545399,4.00503778 C198.936624,6.80856423 199.866545,9.61209068 199.866545,14.6183879 L199.866545,40.2506297 C199.866545,45.9244332 199.268739,48.5944584 198.272395,51.8652393 L198.272395,51.9987406 L212.154784,51.9987406 Z M244.834857,53 C249.085923,53 252.274223,50.5302267 254.134065,47.7934509 C254.731871,50.7972292 257.189519,52.9332494 261.241316,52.9332494 C266.887264,52.9332494 269.212066,48.9949622 270.141987,46.7921914 L270.009141,46.5251889 C269.145643,47.1259446 268.215722,47.3261965 267.48507,47.3261965 C265.359537,47.3261965 264.628885,45.9244332 264.628885,44.3224181 L264.628885,27.1675063 C264.628885,21.9609572 261.374162,18.4231738 254.26691,18.4231738 C247.093236,18.4231738 241.845826,21.9609572 238.657526,25.8324937 L238.923218,26.2997481 C241.912249,25.0314861 244.967703,24.4974811 247.558196,24.4974811 C252.274223,24.4974811 253.934796,26.3664987 253.934796,30.2380353 L253.934796,34.3765743 C246.429007,35.9785894 237.329068,39.115869 237.329068,46.324937 C237.329068,50.9307305 240.783059,53 244.834857,53 Z M251.145034,47.1926952 C248.222425,47.1926952 246.694698,45.4571788 246.694698,42.8539043 C246.694698,39.7166247 249.285192,37.0465995 253.934796,35.7783375 L253.934796,46.5251889 C253.204144,46.9256927 252.2078,47.1926952 251.145034,47.1926952 Z M278.976234,14.0843829 C282.164534,14.0843829 284.82145,11.4811083 284.82145,8.27707809 C284.82145,5.13979849 282.164534,2.53652393 278.976234,2.53652393 C275.787934,2.53652393 273.263863,5.13979849 273.263863,8.27707809 C273.263863,11.4811083 275.787934,14.0843829 278.976234,14.0843829 Z M286.880561,51.9987406 L286.880561,51.8652393 C285.817794,48.5944584 285.286411,45.7241814 285.286411,40.2506297 L285.286411,18.0894207 L271.271176,21.9609572 L271.271176,22.2279597 C273.662401,25.0314861 274.658745,27.9017632 274.658745,32.7745592 L274.658745,40.2506297 C274.658745,45.790932 273.928093,48.5944584 272.998172,51.8652393 L272.998172,51.9987406 L286.880561,51.9987406 Z M305.877514,51.9987406 L305.877514,51.8652393 C304.814747,48.5944584 304.283364,45.790932 304.283364,40.2506297 L304.283364,26.7002519 C305.545399,24.8979849 307.670932,23.429471 310.12858,23.429471 C313.31688,23.429471 314.711761,25.5654912 314.711761,28.3690176 L314.711761,40.3173804 C314.711761,45.7241814 314.246801,48.5944584 313.117611,51.8652393 L313.117611,51.9987406 L327,51.9987406 L327,51.8652393 C325.87081,48.5944584 325.40585,45.8576826 325.40585,40.1838791 L325.40585,27.7015113 C325.40585,22.0277078 321.287629,18.4231738 315.442413,18.4231738 C309.530774,18.4231738 306.076782,22.0277078 304.283364,24.8312343 L304.017672,24.7644836 L304.017672,18.0894207 L290.268129,21.9609572 L290.268129,22.0944584 C292.659354,24.8979849 293.589275,27.768262 293.589275,32.7078086 L293.655698,40.2506297 C293.655698,45.9244332 293.057892,48.5944584 291.995125,51.8652393 L291.995125,51.9987406 L305.877514,51.9987406 Z" id="DeFiChain" fill="#000000"></path>
            <path d="M361.301392,52.7609562 L361.301392,52.625498 C359.238534,47.8167331 358.573096,44.9721116 358.573096,38.4701195 L358.573096,32.4422311 L362.166462,32.4422311 C377.271908,32.4422311 383.127764,25.3984064 383.127764,16.7968127 C383.127764,9.00796813 378.536241,3.18326693 363.497338,3.18326693 L344,3.18326693 L344,3.3187251 C345.929771,8.12749004 346.661753,10.8366534 346.661753,17.4741036 L346.661753,38.4701195 C346.661753,45.0398406 345.929771,47.8167331 344,52.625498 L344,52.7609562 L361.301392,52.7609562 Z M360.502867,30.8844622 L358.573096,30.8844622 L358.573096,4.80876494 C359.371622,4.74103586 360.03706,4.74103586 360.56941,4.74103586 C367.756143,4.74103586 370.950246,9.61752988 370.950246,16.7968127 C370.950246,23.0956175 368.421581,30.8844622 360.502867,30.8844622 Z M393.442056,14.2908367 C396.636159,14.2908367 399.297912,11.6494024 399.297912,8.39840637 C399.297912,5.21513944 396.636159,2.57370518 393.442056,2.57370518 C390.247952,2.57370518 387.719287,5.21513944 387.719287,8.39840637 C387.719287,11.6494024 390.247952,14.2908367 393.442056,14.2908367 Z M401.36077,52.7609562 L401.36077,52.625498 C400.296069,49.3067729 399.763718,46.3944223 399.763718,40.8406375 L399.763718,18.3545817 L385.722973,22.2828685 L385.722973,22.5537849 C388.11855,25.3984064 389.116708,28.310757 389.116708,33.2549801 L389.116708,40.8406375 C389.116708,46.4621514 388.384726,49.3067729 387.453112,52.625498 L387.453112,52.7609562 L401.36077,52.7609562 Z M420.392301,52.7609562 L420.392301,52.625498 C419.3276,49.3067729 418.79525,46.4621514 418.79525,40.8406375 L418.79525,27.0916335 C420.059582,25.2629482 422.188984,23.7729084 424.651106,23.7729084 C427.845209,23.7729084 429.242629,25.940239 429.242629,28.7848606 L429.242629,40.9083665 C429.242629,46.3944223 428.776822,49.3067729 427.645577,52.625498 L427.645577,52.7609562 L441.553235,52.7609562 L441.553235,52.625498 C440.42199,49.3067729 439.956183,46.5298805 439.956183,40.7729084 L439.956183,28.1075697 C439.956183,22.3505976 435.830467,18.6932271 429.974611,18.6932271 C424.052211,18.6932271 420.591933,22.3505976 418.79525,25.1952191 L418.529075,25.12749 L418.529075,18.3545817 L404.754505,22.2828685 L404.754505,22.4183267 C407.150082,25.2629482 408.081695,28.1752988 408.081695,33.187251 L408.148239,40.8406375 C408.148239,46.5976096 407.549345,49.3067729 406.484644,52.625498 L406.484644,52.7609562 L420.392301,52.7609562 Z M458.987715,35.4900398 L468.703112,52.7609562 L481.7457,52.7609562 L481.7457,52.625498 C479.416667,50.7290837 478.351966,48.561753 476.555283,45.5139442 L467.372236,29.6653386 L469.501638,27.5657371 C472.562654,24.7888446 475.357494,21.8087649 479.949017,19.9123506 L479.949017,19.7768924 L468.237305,19.7768924 L468.237305,19.9123506 C469.501638,21.7410359 470.033989,25.2629482 466.972973,28.1075697 L458.987715,35.4900398 Z M458.987715,35.4900398 L458.987715,0 L444.94697,3.92828685 L444.94697,4.06374502 C447.342547,6.90836653 448.274161,9.75298805 448.274161,14.8326693 L448.274161,42.12749 C448.274161,47.5458167 447.608722,49.9163347 446.677109,52.625498 L446.677109,52.7609562 L461.050573,52.7609562 L461.050573,52.625498 C459.852785,49.9163347 458.987715,47.4103586 458.987715,42.12749 L458.987715,35.4900398 Z M513.154382,52.7609562 L513.154382,52.625498 C511.091523,47.8167331 510.426085,44.9721116 510.426085,38.4701195 L510.426085,32.4422311 L514.019451,32.4422311 C529.124898,32.4422311 534.980753,25.3984064 534.980753,16.7968127 C534.980753,9.00796813 530.38923,3.18326693 515.350328,3.18326693 L495.852989,3.18326693 L495.852989,3.3187251 C497.78276,8.12749004 498.514742,10.8366534 498.514742,17.4741036 L498.514742,38.4701195 C498.514742,45.0398406 497.78276,47.8167331 495.852989,52.625498 L495.852989,52.7609562 L513.154382,52.7609562 Z M512.355856,30.8844622 L510.426085,30.8844622 L510.426085,4.80876494 C511.224611,4.74103586 511.890049,4.74103586 512.4224,4.74103586 C519.609132,4.74103586 522.803235,9.61752988 522.803235,16.7968127 C522.803235,23.0956175 520.27457,30.8844622 512.355856,30.8844622 Z M542.699836,53.7768924 C546.95864,53.7768924 550.152744,51.2709163 552.015971,48.4940239 C552.614865,51.5418327 555.076986,53.7091633 559.136159,53.7091633 C564.792383,53.7091633 567.121417,49.7131474 568.05303,47.4780876 L567.919943,47.2071713 C567.054873,47.8167331 566.12326,48.0199203 565.391278,48.0199203 C563.261876,48.0199203 562.529894,46.5976096 562.529894,44.9721116 L562.529894,27.5657371 C562.529894,22.2828685 559.269247,18.6932271 552.149058,18.6932271 C544.962326,18.6932271 539.705364,22.2828685 536.511261,26.2111554 L536.777437,26.685259 C539.771908,25.3984064 542.832924,24.8565737 545.428133,24.8565737 C550.152744,24.8565737 551.816339,26.752988 551.816339,30.6812749 L551.816339,34.8804781 C544.296888,36.5059761 535.180385,39.689243 535.180385,47.0039841 C535.180385,51.6772908 538.640663,53.7768924 542.699836,53.7768924 Z M549.021499,47.8844622 C546.093571,47.8844622 544.563063,46.123506 544.563063,43.4820717 C544.563063,40.2988048 547.158272,37.5896414 551.816339,36.3027888 L551.816339,47.2071713 C551.084357,47.6135458 550.0862,47.8844622 549.021499,47.8844622 Z M584.356265,68 L584.356265,67.8645418 C583.291564,64.5458167 582.825758,61.7011952 582.825758,56.0796813 L582.825758,52.9641434 C584.489353,53.438247 586.485667,53.7768924 588.881245,53.7768924 C600.726044,53.7768924 606.382269,45.8525896 606.382269,35.625498 C606.382269,25.4661355 601.191851,18.6932271 593.472768,18.6932271 C588.282351,18.6932271 584.888616,21.4023904 582.958845,24.0438247 L582.559582,23.9760956 L582.559582,18.3545817 L568.785012,22.2828685 L568.785012,22.4183267 C571.114046,25.2629482 572.112203,28.1752988 572.112203,33.187251 L572.112203,56.0796813 C572.112203,61.8366534 571.513309,64.5458167 570.448608,67.8645418 L570.448608,68 L584.356265,68 Z M588.548526,52.5577689 C585.48751,52.5577689 582.825758,49.7131474 582.825758,41.9920319 L582.825758,25.6015936 C583.823915,24.9243028 585.420966,24.1792829 587.550369,24.1792829 C592.674242,24.1792829 595.202907,28.1752988 595.202907,37.7250996 C595.202907,46.8007968 592.873874,52.5577689 588.548526,52.5577689 Z M625.946151,53.7768924 C633.532146,53.7768924 638.589476,49.4422311 640.386159,43.0756972 L640.05344,42.87251 C638.855651,44.2270916 636.060811,46.123506 631.469287,46.123506 C625.613432,46.123506 620.955364,43.0079681 620.622645,33.0517928 L640.452703,33.1195219 C640.58579,26.2111554 635.52846,18.6932271 626.212326,18.6932271 C616.962735,18.6932271 609.776003,26.2111554 609.776003,36.8446215 C609.776003,46.3266932 615.898034,53.7768924 625.946151,53.7768924 Z M620.622645,31.6972112 C620.622645,25.5338645 622.352785,19.9123506 625.813063,19.9123506 C628.408272,19.9123506 630.071867,22.6215139 630.071867,28.9880478 L630.071867,31.561753 L620.622645,31.6972112 Z M659.084971,52.7609562 L659.084971,52.625498 C658.02027,49.3067729 657.48792,46.4621514 657.48792,40.8406375 L657.48792,28.0398406 C658.419533,26.8884462 659.550778,26.0756972 660.548935,26.0756972 C662.212531,26.0756972 665.805897,27.7689243 667.469492,30.0717131 L667.802211,30.0717131 L669,18.6932271 C663.277232,18.2868526 660.016585,23.6374502 657.221744,26.5498008 L657.221744,18.3545817 L643.447174,22.2828685 L643.447174,22.4183267 C645.842752,25.2629482 646.774365,28.1752988 646.774365,33.187251 L646.774365,40.8406375 C646.774365,46.5976096 646.242015,49.3067729 645.177314,52.625498 L645.177314,52.7609562 L659.084971,52.7609562 Z" id="PinkPaper" fill="#EA33AB"></path>
        </g>
        <g id="symbol-defi-blockchain" transform="translate(208.000000, 110.000000)" fill="#FF00AF">
            <path d="M37.9894444,0 C58.9823333,0 76,17.0134444 76,38 C76,58.7765 59.3201111,75.6590556 38.6175,75.9947222 L37.9894444,76 L37.9894444,43.9723333 L33.1645,48.7962222 L32.5480556,60.8358889 L37.5798889,75.9788889 C34.6679294,75.9437258 31.7698131,75.5718091 28.9433333,74.8705556 L28.2519444,74.6932222 L25.8178333,67.374 L18.9166111,70.8341111 C16.4021517,69.3741902 14.0614426,67.6337083 11.9393889,65.6460556 L11.4158333,65.1446667 L24.1986111,58.7395556 L24.5712222,51.414 L17.2446111,51.7897778 L10.8373889,64.5662222 C8.80757884,62.4865032 7.02294081,60.1808883 5.51844444,57.6945556 L5.14583333,57.0675556 L8.60911111,50.1663333 L1.28355556,47.7343333 C0.535240124,44.931454 0.109902967,42.0521941 0.0158333333,39.1526667 L0,38.4085 L15.1493333,43.4392778 L27.1932222,42.8249444 L32.0160556,38 L27.1921667,33.174 L15.1482778,32.5596667 L0,37.5904444 C0.0316666667,34.6137778 0.425388889,31.7289444 1.10833333,28.956 L1.28355556,28.2656667 L8.60911111,25.8336667 L5.14688889,18.9324444 C6.60584795,16.4174044 8.34679375,14.0769018 10.336,11.9562778 L10.8373889,11.4337778 L17.2446111,24.2102222 L24.5712222,24.586 L24.1975556,17.2583333 L11.4158333,10.8553333 C13.4964223,8.82580132 15.803136,7.04184355 18.2906667,5.5385 L18.9166111,5.16588889 L25.8178333,8.626 L28.2519444,1.30677778 C31.0556295,0.556838589 33.9360444,0.130779434 36.8367778,0.0369444444 L37.5798889,0.0211111111 L32.5480556,15.1641111 L33.1645,27.2037778 L37.9894444,32.0276667 L37.9894444,0 Z M46.436,9.67311111 L46.436,66.3268889 C58.6361111,62.6852222 67.5534444,51.3633333 67.5534444,38 C67.5534444,24.7844444 58.8303333,13.566 46.8371111,9.79555556 L46.436,9.67311111 L46.436,9.67311111 Z" id="Shape"></path>
        </g>
    </g>
</svg>